<?xml version="1.0" standalone="no"?>
<!DOCTYPE svg PUBLIC "-//W3C//DTD SVG 20010904//EN"
 "http://www.w3.org/TR/2001/REC-SVG-20010904/DTD/svg10.dtd">
<svg version="1.0" xmlns="http://www.w3.org/2000/svg"
 width="747.000000pt" height="747.000000pt" viewBox="0 0 747.000000 747.000000"
 preserveAspectRatio="xMidYMid meet">
<metadata>
Created by potrace 1.14, written by Peter Selinger 2001-2017
</metadata>
<g transform="translate(0.000000,747.000000) scale(0.100000,-0.100000)"
fill="#000000" stroke="none">
<path d="M3607 7464 c-1 -1 -47 -4 -102 -8 -116 -7 -184 -13 -240 -22 -22 -3
-53 -8 -70 -10 -201 -26 -530 -115 -760 -206 -380 -150 -752 -378 -1060 -648
-55 -48 -281 -275 -331 -332 -285 -324 -517 -705 -677 -1113 -47 -119 -120
-339 -132 -397 -2 -9 -15 -63 -29 -120 -32 -130 -61 -298 -81 -473 -23 -205
-24 -647 -1 -785 3 -14 7 -54 11 -90 3 -36 8 -72 10 -80 2 -8 6 -33 10 -55 46
-320 167 -710 318 -1025 191 -401 423 -726 742 -1045 341 -341 732 -602 1176
-785 178 -73 457 -160 592 -184 15 -2 35 -7 45 -10 9 -3 33 -7 52 -10 19 -3
46 -8 60 -10 29 -6 76 -12 145 -22 27 -3 61 -8 75 -10 57 -8 293 -18 400 -17
831 4 1611 293 2270 838 167 138 421 403 547 570 13 17 37 48 54 70 107 138
273 418 369 621 156 330 289 772 326 1084 2 19 9 67 14 106 28 205 30 646 5
838 -2 17 -6 51 -9 76 -4 25 -9 65 -12 90 -3 25 -15 90 -25 145 -11 55 -22
111 -25 125 -14 72 -70 271 -110 390 -131 385 -319 740 -566 1068 -45 59 -84
109 -87 112 -3 3 -33 37 -65 75 -88 105 -317 329 -436 426 -494 406 -1073 671
-1683 774 -208 34 -344 46 -571 49 -81 1 -148 1 -149 0z m323 -148 c69 -3 136
-8 150 -10 14 -3 50 -7 80 -10 59 -5 137 -17 260 -42 567 -114 1130 -396 1585
-793 22 -19 101 -97 176 -172 387 -389 677 -862 854 -1391 45 -135 108 -376
120 -458 4 -24 8 -47 11 -51 2 -4 6 -26 8 -50 3 -24 7 -53 10 -64 2 -11 7 -49
11 -85 4 -36 9 -72 10 -82 6 -30 17 -260 18 -357 0 -98 -11 -353 -18 -393 -2
-13 -6 -48 -10 -78 -15 -151 -68 -404 -121 -585 -237 -805 -752 -1509 -1444
-1972 -235 -158 -500 -290 -763 -383 -85 -30 -274 -87 -311 -94 -12 -2 -43 -9
-71 -16 -82 -19 -247 -48 -311 -55 -32 -4 -69 -8 -82 -10 -40 -7 -244 -17
-337 -18 -90 -1 -332 11 -376 18 -13 2 -51 7 -84 10 -81 10 -95 12 -130 19
-16 3 -43 9 -60 12 -484 88 -968 298 -1385 601 -206 149 -442 367 -590 542
-25 30 -50 59 -55 65 -66 71 -220 291 -320 456 -68 112 -208 399 -254 520 -18
47 -37 94 -41 105 -13 30 -67 204 -89 288 -37 136 -61 260 -96 487 -4 24 -14
125 -20 205 -6 63 -6 454 0 515 9 111 24 245 31 285 3 17 7 45 10 63 18 141
87 411 151 597 182 523 463 974 848 1361 179 179 349 322 525 439 194 129 441
261 628 337 191 76 515 172 656 193 21 3 41 7 45 9 3 2 31 7 61 10 30 4 69 9
85 11 57 10 120 15 260 21 77 4 141 7 142 9 2 1 27 0 55 -1 29 -1 109 -5 178
-8z"/>
<path d="M3590 7006 c0 -187 -4 -226 -24 -226 -30 1 -41 20 -40 74 1 51 -1 55
-20 52 -29 -4 -36 -88 -9 -118 31 -34 73 -51 115 -45 87 12 101 48 103 265 1
113 -3 172 -10 173 -5 1 -34 2 -62 4 l-53 2 0 -181z"/>
<path d="M3830 6977 c-41 -110 -76 -206 -78 -214 -2 -8 6 -13 21 -13 21 0 28
8 40 43 15 46 6 43 114 38 26 -1 34 -6 38 -26 3 -14 7 -36 10 -49 4 -22 11
-25 65 -28 36 -2 60 1 60 7 0 22 -83 420 -89 427 -3 3 -29 8 -56 10 l-51 4
-74 -199z m100 6 c6 -38 13 -77 16 -89 5 -19 2 -21 -43 -17 -26 3 -50 6 -51 8
-6 6 52 165 59 165 4 0 12 -30 19 -67z"/>
<path d="M4164 7133 c5 -19 25 -97 32 -123 36 -151 36 -151 25 -228 -6 -41
-10 -77 -7 -79 2 -2 19 -5 38 -7 19 -2 44 -7 56 -10 23 -8 21 -13 42 102 8 46
27 90 76 172 83 140 83 140 50 140 -16 0 -29 -7 -33 -17 -4 -10 -14 -29 -24
-43 -9 -14 -29 -47 -44 -73 -15 -27 -29 -46 -32 -44 -2 3 -11 34 -19 68 -26
118 -35 138 -63 143 -86 17 -103 17 -97 -1z"/>
<path d="M3027 7104 c-27 -7 -50 -14 -52 -16 -1 -2 -6 -52 -9 -113 -13 -225
-18 -300 -21 -305 -2 -3 0 -12 4 -18 14 -22 46 0 47 33 1 17 2 37 3 46 1 11
17 21 49 28 26 7 54 14 62 16 10 3 22 -8 35 -33 27 -50 31 -52 82 -37 23 7 43
10 43 7 0 -3 5 -1 11 5 8 8 -16 62 -91 200 -56 103 -105 191 -109 194 -3 3
-28 0 -54 -7z m66 -284 c-4 -4 -27 -12 -50 -17 l-41 -10 3 51 c2 28 4 74 4
101 l1 50 46 -84 c25 -46 42 -87 37 -91z"/>
<path d="M4568 6866 c-65 -96 -119 -180 -120 -187 -2 -7 6 -15 18 -17 15 -2
28 8 47 36 l26 40 60 -21 60 -21 3 -49 3 -50 54 -19 c30 -10 56 -17 57 -15 1
1 6 72 9 157 4 85 8 185 10 221 l4 67 -42 16 c-24 9 -49 16 -57 16 -8 -1 -68
-79 -132 -174z m108 57 c-3 -10 -6 -49 -7 -88 -3 -95 -2 -95 -52 -78 -23 8
-44 16 -46 19 -4 4 100 164 107 164 2 0 1 -8 -2 -17z"/>
<path d="M2695 7011 c-51 -20 -66 -31 -61 -39 2 -4 7 -41 10 -82 4 -41 9 -97
12 -125 l6 -50 -81 108 c-45 59 -85 107 -89 107 -10 0 -100 -35 -107 -41 -4
-5 140 -396 149 -406 1 -2 10 3 20 10 15 11 13 21 -28 127 -25 62 -43 116 -41
119 3 2 7 2 8 0 2 -2 39 -50 82 -106 42 -57 78 -103 80 -103 1 0 16 5 33 11
29 10 31 13 27 52 -2 23 -6 74 -10 112 -3 39 -8 87 -11 108 -3 20 -3 37 -1 37
3 0 26 -58 53 -130 27 -71 54 -130 61 -130 6 0 32 9 58 20 37 16 46 24 40 38
-12 29 -106 274 -127 330 -21 57 -24 58 -83 33z"/>
<path d="M2237 6827 c-14 -11 -7 -27 64 -147 97 -167 102 -188 61 -230 -21
-20 -40 -30 -61 -30 -35 0 -54 25 -161 213 -30 53 -59 97 -64 97 -18 0 -96
-51 -95 -63 0 -7 35 -73 78 -147 92 -158 121 -185 190 -176 52 7 121 45 150
82 28 36 36 87 20 127 -12 28 -151 272 -161 283 -3 2 -12 -2 -21 -9z"/>
<path d="M5193 6818 c-21 -27 -144 -238 -157 -270 -28 -66 4 -130 87 -178 79
-45 149 -38 194 20 37 45 164 271 158 280 -15 24 -34 3 -105 -116 -41 -69 -86
-137 -99 -150 -28 -28 -62 -31 -102 -7 -58 34 -53 53 71 257 l69 116 -40 26
c-55 34 -64 37 -76 22z"/>
<path d="M5526 6614 c-4 -10 1 -22 11 -29 10 -7 28 -21 41 -31 l23 -19 -111
-152 c-60 -83 -110 -156 -110 -161 0 -5 23 -25 51 -45 l52 -36 26 38 c94 135
196 271 204 271 6 0 26 -12 44 -26 32 -24 36 -25 51 -10 9 8 14 17 11 19 -44
35 -274 197 -279 197 -4 0 -11 -7 -14 -16z"/>
<path d="M3530 6594 c-443 -53 -697 -123 -1014 -280 -284 -141 -501 -298 -731
-529 -152 -152 -164 -165 -270 -307 -237 -315 -398 -654 -496 -1043 -17 -66
-32 -131 -34 -145 -2 -14 -6 -36 -9 -50 -3 -14 -7 -41 -10 -60 -2 -19 -8 -57
-12 -85 -3 -27 -9 -59 -11 -70 -13 -52 -10 -507 3 -620 67 -573 274 -1073 622
-1510 414 -517 1014 -883 1639 -1000 123 -23 132 -24 243 -36 167 -19 640 -15
702 6 7 2 36 6 65 9 42 5 107 17 213 41 154 34 376 115 548 199 459 226 879
627 1152 1100 164 285 302 662 354 971 34 203 41 290 41 540 0 258 -10 369
-50 573 -3 12 -7 34 -10 50 -63 317 -230 711 -425 1002 -307 457 -748 823
-1242 1033 -214 91 -519 174 -708 192 -36 4 -76 9 -90 11 -34 7 -427 13 -470
8z m277 -177 c104 -70 215 -308 307 -658 l35 -129 -32 -1 c-18 0 -48 -2 -67
-4 -136 -13 -686 -3 -702 13 -7 8 40 206 77 322 101 318 227 506 325 484 14
-3 40 -15 57 -27z m-351 -29 c-90 -143 -174 -377 -246 -686 l-12 -54 -52 7
c-51 7 -300 49 -346 60 -97 21 -164 42 -167 50 -2 6 33 58 77 116 161 215 342
374 537 473 47 23 216 85 235 86 4 0 -7 -24 -26 -52z m694 -36 c142 -67 285
-174 423 -316 75 -79 221 -260 233 -289 5 -13 -29 -24 -141 -44 -11 -2 -54
-10 -96 -18 -117 -22 -169 -29 -228 -29 l-54 -1 -28 115 c-16 63 -48 171 -70
240 -42 127 -147 361 -168 374 -6 4 -11 11 -11 16 0 11 54 -7 140 -48z m505
-65 c157 -58 369 -168 523 -271 73 -49 135 -93 138 -97 3 -5 -19 -20 -48 -33
-61 -28 -285 -106 -302 -106 -6 1 -38 40 -71 87 -33 47 -64 91 -70 97 -5 6
-35 41 -65 76 -81 96 -165 178 -260 255 -47 37 -87 69 -88 71 -10 7 145 -42
243 -79z m-1745 16 c-120 -98 -291 -291 -375 -423 -55 -86 -46 -83 -138 -49
-109 40 -199 80 -215 94 -11 10 2 23 65 68 100 69 267 166 380 219 74 34 306
126 323 127 3 0 -15 -16 -40 -36z m-758 -522 c58 -27 140 -62 181 -76 l76 -27
-43 -87 c-68 -134 -124 -273 -177 -431 -60 -183 -119 -408 -124 -475 -1 -17
-38 -6 -166 45 -189 77 -330 159 -436 255 -29 26 -53 54 -53 62 0 24 143 252
224 358 106 138 380 425 406 425 4 0 55 -22 112 -49z m3365 -33 c99 -95 203
-207 273 -294 82 -102 213 -302 263 -401 l27 -51 -48 -40 c-108 -91 -285 -186
-474 -256 -158 -59 -139 -68 -178 81 -65 253 -172 534 -285 752 -31 58 -52
108 -48 112 5 3 26 12 48 19 61 19 244 92 295 117 25 12 49 22 53 22 5 1 38
-27 74 -61z m-2843 -148 c66 -16 135 -32 151 -35 75 -14 254 -44 295 -50 25
-4 46 -8 47 -9 2 -1 -6 -54 -16 -117 -11 -63 -22 -139 -26 -169 -3 -30 -8 -66
-10 -80 -10 -73 -20 -159 -30 -275 -3 -33 -7 -76 -10 -95 -4 -36 -17 -211 -19
-265 -1 -29 -3 -30 -46 -29 -41 0 -87 5 -195 20 -22 3 -87 14 -145 24 -58 11
-116 21 -130 24 -31 5 -169 38 -267 62 -84 21 -82 14 -53 141 47 203 94 358
160 527 46 118 158 356 168 356 2 0 59 -13 126 -30z m2261 -62 c131 -241 237
-514 314 -807 l30 -112 -25 -9 c-14 -6 -39 -12 -56 -15 -17 -3 -34 -8 -38 -10
-3 -2 -17 -6 -31 -9 -13 -3 -67 -14 -119 -26 -52 -11 -106 -22 -120 -25 -48
-8 -165 -26 -200 -31 -19 -2 -79 -10 -133 -18 -54 -7 -99 -10 -101 -7 -2 3 -7
45 -10 92 -4 47 -8 96 -11 110 -2 13 -6 60 -10 104 -4 44 -8 82 -10 85 -1 3
-6 41 -10 85 -4 44 -8 82 -10 85 -1 3 -6 33 -9 68 -4 34 -18 129 -32 210 -14
81 -27 159 -30 175 -4 24 -1 27 23 28 75 1 405 60 498 88 17 5 35 10 40 10 6
1 29 -32 50 -71z m-1453 -55 c185 -8 389 -8 559 0 l137 7 16 -88 c8 -48 18
-100 20 -117 19 -116 28 -175 32 -205 9 -72 15 -116 19 -140 2 -14 6 -51 9
-82 4 -32 8 -82 11 -110 23 -220 28 -298 19 -298 -5 0 -56 -4 -114 -8 -135 -9
-714 -9 -850 0 -58 4 -115 8 -126 8 -16 0 -21 5 -19 24 2 14 6 66 9 118 10
144 16 220 21 258 2 19 7 64 10 100 4 36 8 76 10 90 2 14 6 50 10 80 5 45 27
185 51 334 6 37 13 48 25 41 5 -3 73 -9 151 -12z m-1966 -716 c120 -78 299
-161 486 -228 20 -7 35 -15 33 -18 -1 -3 -6 -28 -9 -56 -4 -27 -9 -66 -11 -85
-2 -19 -7 -66 -11 -105 -4 -38 -8 -81 -10 -95 -1 -14 -2 -36 -3 -50 l-1 -26
-446 0 -445 0 6 51 c4 27 10 66 15 85 5 19 11 49 13 65 15 102 97 359 168 528
l32 77 56 -49 c31 -27 88 -69 127 -94z m4667 13 c60 -145 133 -387 152 -500 3
-19 10 -59 15 -89 6 -30 10 -62 10 -71 0 -15 -39 -16 -424 -16 -233 1 -427 3
-429 6 -3 3 -8 36 -12 74 -3 38 -8 72 -9 75 -2 3 -6 33 -10 66 -4 33 -12 88
-20 123 -7 35 -9 65 -5 67 4 3 53 21 108 40 210 73 432 189 550 286 19 16 36
27 37 26 1 -1 18 -40 37 -87z m-3848 -335 c171 -40 347 -74 465 -89 25 -4 56
-8 70 -10 14 -3 52 -7 85 -11 95 -10 92 -7 89 -78 -2 -34 -3 -81 -3 -104 l-1
-42 -187 -1 c-104 -1 -229 -2 -279 -3 l-91 -1 2 -188 1 -188 -73 0 c-51 0 -73
4 -74 13 0 6 0 90 0 185 1 94 -2 173 -7 173 -4 1 -47 3 -97 4 -49 1 -93 3 -97
4 -4 0 -5 20 -3 44 2 23 6 74 10 112 3 39 8 84 10 100 3 17 7 47 10 69 7 52
12 57 43 45 15 -6 72 -21 127 -34z m2979 -2 c7 -35 13 -73 22 -132 4 -25 8
-55 10 -66 2 -10 6 -47 9 -80 l6 -61 -86 1 c-69 1 -88 -2 -94 -14 -4 -9 -7
-94 -6 -188 l3 -173 -88 0 -88 0 -32 58 c-107 189 -288 325 -447 336 -24 1
-45 4 -47 7 -7 7 -15 189 -8 190 4 0 16 2 27 4 11 2 58 8 105 14 109 15 137
19 240 36 132 23 143 25 170 31 14 3 37 8 51 10 14 3 68 15 120 28 124 31 126
31 133 -1z m-1869 -148 c90 -5 540 -5 625 0 36 2 106 6 156 9 l92 6 4 -28 c2
-15 3 -56 3 -92 l0 -65 -110 -2 c-60 0 -317 -3 -570 -5 l-460 -3 0 75 c0 41 1
85 3 97 5 25 -15 24 257 8z m-967 -653 c9 -2 12 -44 12 -173 l0 -170 275 2
c151 1 277 0 279 -2 2 -2 6 -61 10 -130 5 -98 3 -126 -6 -126 -88 -3 -425 -71
-583 -117 l-115 -33 -1 31 c-1 17 -3 49 -5 71 -4 45 -12 644 -8 648 3 2 119 1
142 -1z m2696 -287 c-1 -360 -4 -469 -15 -486 -6 -10 -15 -10 -48 1 l-41 13 0
151 c-1 275 -9 510 -19 551 -16 63 -17 62 57 61 l67 -2 -1 -289z m-1089 -61
c25 -34 45 -106 45 -166 l0 -58 -122 7 c-221 12 -634 6 -770 -12 -31 -4 -38
-2 -38 12 -1 10 -3 65 -6 123 l-6 105 343 3 c189 2 344 4 345 5 1 1 46 2 98 1
83 -1 98 -3 111 -20z m-91 -358 c44 -3 82 -8 84 -11 3 -3 -82 -5 -189 -6 -107
0 -296 -1 -421 -2 -124 -1 -224 0 -222 2 7 8 32 10 179 17 77 4 141 7 142 8 5
4 349 -3 427 -8z m-1507 -449 l3 -292 -21 50 c-29 73 -67 223 -84 333 -28 189
-31 167 23 184 84 28 77 53 79 -275z m2631 232 c31 -11 32 -12 26 -57 -41
-346 -149 -616 -306 -769 l-53 -51 -105 24 c-58 13 -156 31 -218 41 -114 17
-114 17 -109 42 3 14 11 63 17 109 7 45 15 82 19 83 3 0 38 2 76 4 124 5 203
30 305 96 159 103 299 313 300 452 0 41 3 42 48 26z m-881 -606 c-3 -15 -11
-60 -17 -100 l-13 -72 -36 4 c-167 17 -666 25 -789 12 -47 -5 -41 -14 -66 105
-7 37 -9 69 -5 70 5 2 216 4 470 6 l460 4 -4 -29z m-1057 -79 l16 -92 -51 -6
c-106 -12 -144 -18 -284 -42 l-144 -25 -44 43 c-45 43 -154 198 -148 208 2 3
147 6 321 5 l318 0 16 -91z m818 -218 c102 -5 172 -13 178 -19 1 -1 -6 -36
-15 -77 l-18 -75 -132 -1 c-72 -1 -133 -3 -135 -5 -2 -2 -7 -92 -10 -199 -12
-362 -16 -434 -29 -442 -9 -5 -55 -5 -109 1 -4 1 -6 9 -6 19 0 9 -3 109 -7
222 -5 113 -9 237 -10 275 -2 39 -3 84 -4 100 l-1 30 -144 -3 -145 -3 -10 40
c-6 23 -16 59 -21 81 -6 22 -9 44 -6 49 3 5 49 9 103 10 54 1 99 3 100 5 4 4
294 -2 421 -8z m-759 -68 c6 -29 14 -63 17 -74 5 -20 2 -21 -33 -17 -84 9
-343 86 -331 99 4 4 111 21 188 30 30 3 56 7 57 8 2 1 22 3 46 4 l44 3 12 -53z
m1206 18 c22 -4 69 -11 104 -18 l65 -11 -48 -18 c-56 -23 -185 -56 -239 -62
-27 -4 -37 -1 -34 7 3 6 10 37 16 67 l12 56 42 -7 c23 -5 60 -11 82 -14z"/>
<path d="M1845 6568 c-16 -6 -71 -40 -122 -76 l-92 -64 33 -47 c18 -25 74
-105 125 -178 l92 -132 50 35 c27 20 49 38 49 41 0 3 -22 36 -50 73 l-49 68
22 15 c89 60 125 127 101 187 -29 71 -92 102 -159 78z m-2 -77 c30 -12 67 -69
67 -104 0 -17 -9 -32 -25 -43 -30 -19 -24 -23 -81 57 l-44 64 22 17 c27 21 29
21 61 9z"/>
<path d="M5760 6209 c-96 -55 -182 -104 -190 -109 -13 -8 -12 -11 5 -24 18
-13 24 -12 62 8 l41 24 47 -48 47 -48 -23 -40 -24 -41 40 -41 c21 -22 43 -39
48 -37 10 3 30 38 176 309 l41 77 -37 35 c-21 20 -42 36 -48 35 -5 0 -89 -45
-185 -100z m120 6 c0 -6 -79 -147 -85 -153 -5 -6 -75 60 -75 70 0 4 4 8 9 8 5
0 38 18 72 39 63 39 79 46 79 36z"/>
<path d="M6148 6093 c-1 -5 -48 -48 -103 -97 -55 -50 -104 -95 -110 -100 -5
-6 -29 -28 -52 -48 -39 -35 -40 -37 -23 -53 10 -9 20 -13 21 -8 2 4 49 49 103
98 104 94 105 92 22 -43 -82 -132 -79 -123 -51 -152 24 -24 26 -24 58 -8 134
69 239 117 222 102 -11 -11 -59 -54 -108 -98 -48 -43 -87 -81 -87 -85 0 -3 17
-25 38 -48 l37 -42 50 45 c147 134 203 184 233 208 17 15 32 33 32 39 0 7 -18
31 -41 54 l-41 42 -121 -60 c-101 -51 -118 -57 -105 -37 8 12 41 65 73 116
l57 92 -38 44 c-37 42 -58 55 -66 39z"/>
<path d="M1184 5978 c-26 -35 -51 -65 -54 -68 -3 -3 -27 -33 -54 -68 -45 -59
-47 -65 -32 -80 15 -15 17 -15 30 3 7 11 22 30 32 43 l19 23 154 -120 154
-119 41 50 40 51 -31 26 c-35 30 -40 34 -158 126 -128 99 -121 88 -85 134 31
38 33 61 6 61 -7 0 -35 -28 -62 -62z"/>
<path d="M1572 5914 c-50 -35 -2 -121 54 -95 13 6 29 23 35 37 8 23 6 31 -12
51 -26 27 -46 29 -77 7z"/>
<path d="M1004 5686 c-17 -8 -46 -33 -65 -57 -43 -54 -123 -178 -118 -183 5
-4 249 -163 307 -200 23 -14 46 -26 51 -26 5 0 23 22 40 50 l30 49 -74 46 -74
47 32 56 c32 58 43 121 26 154 -13 24 -69 64 -99 71 -14 3 -39 0 -56 -7z m46
-125 c40 -29 51 -59 34 -93 -8 -15 -17 -28 -19 -28 -3 0 -37 21 -75 46 -59 40
-68 49 -60 65 23 42 70 46 120 10z"/>
<path d="M6330 5538 c-113 -34 -206 -62 -208 -64 -2 -1 2 -11 9 -22 12 -19 16
-19 57 -6 25 7 48 11 52 9 3 -2 20 -27 38 -55 l31 -50 -29 -34 c-17 -18 -30
-36 -30 -39 0 -4 12 -27 27 -52 29 -46 46 -55 60 -31 7 12 87 104 143 166 54
58 125 144 125 149 0 15 -50 91 -59 90 -6 0 -103 -28 -216 -61z m79 -78 c-35
-38 -66 -70 -69 -70 -7 0 -50 67 -50 78 0 7 144 58 173 61 5 1 -20 -30 -54
-69z"/>
<path d="M586 4200 l-28 -99 -95 -3 -95 -3 43 -32 c24 -18 59 -45 77 -61 l34
-28 -27 -93 c-15 -51 -25 -94 -23 -96 2 -2 35 22 74 54 l71 59 72 -60 c39 -33
74 -58 77 -56 2 3 0 16 -4 29 -5 13 -19 56 -30 95 l-20 71 76 59 75 59 -94 5
-94 5 -27 94 c-16 52 -29 96 -31 98 -2 1 -16 -42 -31 -97z"/>
<path d="M6865 4213 c-9 -32 -22 -76 -29 -97 l-12 -40 -92 1 c-51 0 -92 -1
-92 -2 0 -1 33 -30 74 -64 l75 -61 -15 -50 c-8 -28 -21 -72 -28 -100 -16 -53
-15 -57 6 -37 48 47 132 106 141 100 7 -4 35 -25 62 -48 28 -22 58 -47 67 -54
19 -14 22 -27 -26 137 l-15 53 74 61 c41 33 75 62 75 63 0 1 -39 2 -86 1 -47
-1 -89 1 -94 4 -4 3 -20 45 -34 94 -14 49 -28 91 -30 93 -2 3 -12 -22 -21 -54z"/>
<path d="M797 3104 c-3 -3 -2 -16 2 -28 5 -11 11 -33 14 -47 l7 -26 -185 -49
c-124 -33 -185 -53 -185 -62 0 -28 32 -122 40 -117 10 6 346 95 359 95 5 0 14
-22 21 -50 12 -52 16 -55 38 -41 14 8 15 2 -49 249 -16 62 -26 82 -39 82 -9 0
-19 -3 -23 -6z"/>
<path d="M6651 2992 c-59 -29 -76 -63 -76 -147 0 -66 3 -77 30 -112 46 -57
133 -97 209 -96 70 0 112 18 150 63 32 39 48 93 44 150 -2 35 1 49 17 62 13
11 17 20 10 27 -10 10 -214 66 -219 60 -2 -2 -13 -40 -24 -84 -17 -61 -19 -81
-9 -87 17 -11 31 -4 35 18 6 32 15 34 70 19 64 -16 82 -30 82 -61 0 -52 -65
-62 -190 -28 -127 34 -172 68 -163 124 6 40 28 54 79 53 43 -2 46 0 40 20 -3
12 -6 25 -6 30 0 13 -44 7 -79 -11z"/>
<path d="M773 2749 c-114 -21 -205 -91 -218 -168 -15 -89 53 -210 125 -225 94
-18 202 15 271 84 54 54 63 93 39 170 -34 113 -106 159 -217 139z m163 -107
c18 -12 24 -42 14 -63 -17 -31 -140 -87 -252 -113 -53 -13 -59 -13 -82 5 -47
37 -11 80 106 125 123 47 191 62 214 46z"/>
<path d="M6492 2631 l-20 -59 72 -25 c39 -14 123 -44 186 -67 156 -57 145 -56
159 -23 20 51 30 93 21 93 -5 0 -87 29 -182 64 -95 35 -183 67 -194 70 -19 6
-24 0 -42 -53z"/>
<path d="M6490 2503 c-35 -13 -75 -64 -121 -156 -27 -55 -46 -103 -43 -109 6
-9 375 -190 379 -186 2 2 15 27 29 56 l27 53 -90 42 c-91 43 -107 61 -76 87
22 19 53 15 118 -14 83 -37 90 -36 120 34 21 49 23 60 10 60 -8 0 -46 10 -85
21 -71 22 -74 22 -128 -8 -3 -2 -7 13 -8 34 -3 44 -16 62 -59 80 -34 14 -48
15 -73 6z m21 -113 c19 0 49 -41 49 -68 0 -48 -16 -53 -79 -26 -31 14 -60 29
-64 33 -22 22 38 76 71 65 8 -2 18 -4 23 -4z"/>
<path d="M1018 2472 c-22 -4 -22 -4 3 -59 11 -25 19 -46 17 -48 -2 -2 -79 -40
-171 -85 -152 -74 -167 -84 -161 -104 8 -27 43 -96 48 -96 3 0 79 36 170 80
91 44 169 80 174 80 4 0 18 -20 30 -45 19 -40 25 -44 42 -35 18 10 15 19 -57
163 -41 83 -76 152 -76 153 -1 0 -10 -1 -19 -4z"/>
<path d="M1045 2050 c-99 -25 -192 -50 -207 -53 -29 -8 -36 -25 -17 -44 7 -7
23 -7 55 3 l44 13 23 -37 c49 -78 49 -74 12 -112 l-34 -35 33 -53 32 -53 150
157 c82 86 150 160 152 165 4 10 -47 100 -56 98 -4 -1 -88 -23 -187 -49z m74
-56 c-18 -20 -46 -50 -61 -65 -15 -16 -32 -29 -37 -29 -12 0 -53 71 -46 79 6
5 145 47 169 50 6 0 -6 -15 -25 -35z"/>
<path d="M6101 1904 c-19 -28 -29 -50 -23 -56 5 -5 84 -60 177 -123 l168 -113
27 36 c76 107 141 213 135 222 -12 20 -34 9 -56 -27 -13 -21 -34 -52 -47 -70
l-24 -32 -149 100 c-83 55 -156 102 -163 105 -8 3 -26 -14 -45 -42z"/>
<path d="M1188 1796 c-91 -69 -168 -129 -171 -133 -3 -4 35 -61 84 -125 62
-81 94 -115 104 -112 23 9 18 23 -28 83 -24 31 -46 61 -50 67 -4 7 54 58 149
128 166 126 158 114 117 166 -7 8 -18 23 -26 33 -11 17 -26 8 -179 -107z"/>
<path d="M5929 1688 c-19 -23 -35 -46 -36 -52 -1 -6 70 -71 159 -145 l161
-134 31 34 c17 20 40 46 51 60 11 13 41 49 67 80 36 42 45 58 36 67 -7 7 -15
12 -19 12 -4 0 -32 -29 -62 -65 l-56 -65 -133 113 c-74 61 -141 117 -149 124
-13 10 -21 5 -50 -29z"/>
<path d="M5812 1557 l-42 -42 153 -153 153 -152 44 45 44 45 -149 150 c-82 83
-152 150 -155 150 -3 0 -25 -19 -48 -43z"/>
<path d="M1592 1514 c-42 -18 -72 -68 -72 -119 0 -22 11 -71 24 -108 27 -77
25 -99 -10 -117 -31 -17 -66 0 -94 44 -23 39 -16 81 16 103 29 19 30 29 5 43
-26 13 -44 5 -64 -29 -23 -39 -21 -79 4 -121 50 -84 131 -124 202 -99 83 29
107 111 64 220 -38 95 -41 114 -22 133 31 31 82 11 111 -45 17 -34 12 -61 -17
-88 -20 -18 -20 -18 5 -34 22 -15 25 -15 40 2 19 21 30 72 22 104 -8 33 -69
95 -110 112 -43 18 -61 18 -104 -1z"/>
<path d="M5698 1430 c-34 -10 -50 -22 -137 -99 -39 -35 -71 -68 -71 -75 0 -6
19 -31 43 -56 23 -25 82 -91 131 -145 49 -55 93 -104 97 -109 7 -8 88 54 97
73 2 6 -23 36 -92 109 l-41 43 22 19 c32 25 55 16 117 -46 30 -30 60 -54 67
-54 8 0 33 18 56 41 l43 40 -68 55 c-59 48 -72 54 -105 52 -31 -3 -36 -1 -31
12 4 8 7 32 8 54 0 31 -6 44 -32 67 -33 29 -56 34 -104 19z m16 -102 c33 -30
40 -70 17 -97 -10 -12 -23 -21 -29 -21 -11 0 -92 90 -92 104 0 14 33 35 57 36
12 0 33 -10 47 -22z"/>
<path d="M1831 1288 c-51 -25 -117 -97 -142 -154 -48 -107 -19 -187 91 -253
69 -41 161 -20 228 53 95 105 112 212 45 287 -68 76 -153 101 -222 67z m169
-63 c27 -33 -23 -131 -126 -244 -50 -55 -85 -71 -109 -51 -27 23 -17 66 34
142 97 143 165 196 201 153z"/>
<path d="M5373 1181 c-71 -33 -194 -121 -186 -134 15 -27 149 -226 190 -284
l45 -63 90 62 c108 74 143 120 142 187 -1 115 -124 252 -224 251 -8 0 -34 -9
-57 -19z m66 -99 c59 -62 111 -151 118 -200 5 -35 2 -41 -25 -60 l-30 -22
-100 150 -101 150 27 14 c44 24 63 19 111 -32z"/>
<path d="M2062 956 c-79 -132 -107 -187 -99 -194 28 -21 236 -142 245 -142 5
0 12 7 15 15 6 15 -14 32 -96 79 l-48 27 20 32 c10 18 55 92 100 166 89 149
88 132 10 179 l-36 22 -111 -184z"/>
<path d="M2405 976 c-8 -11 -15 -23 -15 -27 0 -4 -25 -60 -57 -125 -84 -178
-77 -227 41 -288 66 -34 123 -36 165 -7 24 18 97 150 138 254 10 24 21 36 29
33 7 -3 31 -10 52 -16 l40 -10 -13 -48 c-7 -26 -32 -107 -54 -181 -23 -74 -41
-137 -41 -141 0 -8 119 -45 123 -39 2 2 27 83 56 179 30 96 55 178 57 182 2 3
25 0 50 -8 49 -14 64 -12 64 11 0 9 -37 25 -102 45 -57 17 -138 43 -181 57
-76 24 -79 24 -92 7 -8 -11 -15 -23 -15 -27 0 -5 -27 -64 -59 -132 -72 -149
-91 -165 -159 -135 -60 27 -60 53 3 185 24 49 54 115 68 146 l25 56 -55 25
-54 25 -14 -21z"/>
<path d="M4930 932 c-78 -23 -220 -86 -217 -96 103 -259 150 -372 156 -379 10
-10 101 22 107 38 3 7 -11 52 -30 101 -37 89 -36 104 4 104 28 0 45 -19 80
-92 28 -57 40 -73 55 -71 32 3 119 45 107 52 -5 3 -26 34 -46 68 -38 64 -59
83 -95 83 -20 0 -20 1 4 36 14 20 25 43 25 51 0 27 -28 81 -48 92 -23 12 -81
20 -102 13z m16 -88 c31 -46 21 -93 -23 -113 -14 -7 -27 -10 -28 -9 -6 7 -55
132 -52 134 1 2 14 7 27 12 33 12 58 4 76 -24z"/>
<path d="M4499 790 c-33 -10 -79 -40 -101 -65 -53 -63 -38 -202 35 -308 71
-104 272 -71 324 53 22 55 -3 183 -50 255 -44 67 -121 92 -208 65z m71 -62
c28 -45 81 -217 83 -268 3 -75 -66 -91 -98 -23 -42 89 -84 243 -76 283 10 50
62 54 91 8z"/>
<path d="M3026 651 c-15 -58 -28 -115 -31 -126 -2 -11 -13 -56 -24 -99 -12
-44 -19 -81 -16 -84 10 -10 109 -31 115 -24 5 5 38 134 45 172 0 3 13 56 29
118 16 62 26 115 23 119 -3 3 -30 11 -60 18 l-54 13 -27 -107z"/>
<path d="M4245 724 c-33 -7 -77 -16 -99 -19 -21 -4 -48 -10 -60 -15 l-22 -8
23 -114 c12 -62 25 -124 27 -138 10 -58 27 -136 31 -151 5 -15 12 -15 61 -3
31 7 58 14 60 17 2 2 -5 43 -15 92 -11 49 -18 92 -16 96 3 3 32 12 65 18 39 8
60 17 60 26 0 23 -17 27 -77 16 -31 -6 -58 -9 -60 -7 -6 6 -25 127 -21 132 3
2 35 11 73 19 76 16 78 16 69 39 -7 18 -16 18 -99 0z"/>
<path d="M3253 691 c-61 -38 -88 -92 -99 -201 -12 -110 39 -198 123 -216 119
-24 183 1 227 90 26 51 30 70 30 146 1 76 -2 91 -24 122 -32 48 -81 71 -161
74 -50 2 -73 -1 -96 -15z m158 -45 c6 -64 5 -90 -16 -226 -10 -69 -35 -114
-66 -118 -40 -5 -54 21 -52 97 1 75 29 225 46 252 6 10 18 20 27 22 20 4 60
-13 61 -27z"/>
<path d="M3579 678 c-1 -5 -8 -170 -13 -300 -4 -127 -4 -128 18 -128 21 0 22
4 25 127 1 71 4 129 6 131 2 2 41 -57 87 -132 l83 -136 48 0 c44 0 47 1 48 28
0 15 2 59 4 97 12 287 11 300 -11 303 -23 3 -22 14 -27 -225 -1 -29 -4 -53 -7
-53 -3 0 -46 65 -95 145 l-90 145 -37 0 c-21 0 -38 -1 -39 -2z"/>
</g>
</svg>
